<svg width="18" height="18" viewBox="0 0 18 18" fill="none" xmlns="http://www.w3.org/2000/svg">
<rect x="1" y="1" width="16" height="16" rx="2" stroke="#16857b" stroke-width="2"/>
<path d="M7.7629 12.2371L7.76067 12.2389C7.66761 12.3143 7.54818 12.3511 7.43433 12.3511C7.32087 12.3511 7.20686 12.3144 7.12842 12.2349L4.28625 9.31984C4.19474 9.22701 4.14683 9.11314 4.14683 8.99713C4.14683 8.88107 4.19467 8.76726 4.28625 8.67441L4.55064 8.40636C4.73318 8.22128 5.03324 8.21384 5.18923 8.40838L7.43043 10.6806L12.8109 5.29213C12.9669 5.09772 13.2669 5.10521 13.4494 5.29024L13.4516 5.29247L13.713 5.59082C13.9036 5.74926 13.8958 6.05267 13.7137 6.23734L7.7629 12.2371Z" fill="#16857b"/>
<path fill-rule="evenodd" clip-rule="evenodd" d="M4.28625 9.31984L7.12842 12.2349C7.20686 12.3144 7.32087 12.3511 7.43433 12.3511C7.54818 12.3511 7.66761 12.3143 7.76067 12.2389L7.7629 12.2371L13.7137 6.23734C13.8946 6.05375 13.9035 5.75283 13.7164 5.59365C13.7153 5.5927 13.7142 5.59176 13.713 5.59082L13.4516 5.29247L13.4494 5.29024C13.2676 5.10596 12.9693 5.09779 12.8128 5.28979C12.8122 5.29056 12.8115 5.29135 12.8109 5.29213L7.43043 10.6806L5.18923 8.40838C5.18864 8.40763 5.18804 8.4069 5.18744 8.40616C5.03095 8.2139 4.73248 8.22199 4.55064 8.40636L4.28625 8.67441C4.19467 8.76726 4.14683 8.88107 4.14683 8.99713C4.14683 9.11314 4.19474 9.22701 4.28625 9.31984ZM4.1821 9.42477C4.06598 9.30683 4 9.15621 4 8.99713C4 8.83789 4.066 8.68719 4.18242 8.56915L4.44681 8.3011C4.67702 8.0677 5.07577 8.0391 5.29799 8.30812L7.43107 10.4708L12.7025 5.19147C12.9248 4.92302 13.3232 4.95174 13.5532 5.18498L13.5585 5.19032L13.8157 5.48383C14.0757 5.71006 14.0462 6.11071 13.8175 6.3426L13.8172 6.34289L7.86081 12.3483L7.8524 12.3551C7.73034 12.4541 7.57751 12.5 7.43433 12.5C7.29265 12.5 7.13732 12.4545 7.0246 12.3402L7.02419 12.3398L4.1824 9.42507L4.1821 9.42477Z" fill="#16857b"/>
</svg>
