<svg width="17" height="22" viewBox="0 0 17 22" fill="none" xmlns="http://www.w3.org/2000/svg">
<path d="M0.5 21.666C0.5 19.5443 1.34285 17.5095 2.84315 16.0092C4.34344 14.5089 6.37827 13.666 8.5 13.666C10.6217 13.666 12.6566 14.5089 14.1569 16.0092C15.6571 17.5095 16.5 19.5443 16.5 21.666H0.5ZM9.5 15.749V19.666H14.159C13.8016 18.6574 13.1813 17.7625 12.3623 17.0738C11.5432 16.3852 10.555 15.9278 9.5 15.749ZM7.5 19.666V15.749C6.44496 15.9278 5.45682 16.3852 4.63775 17.0738C3.81867 17.7625 3.19838 18.6574 2.841 19.666H7.5ZM8.5 12.666C5.185 12.666 2.5 9.98102 2.5 6.66602C2.5 3.35102 5.185 0.666016 8.5 0.666016C11.815 0.666016 14.5 3.35102 14.5 6.66602C14.5 9.98102 11.815 12.666 8.5 12.666ZM8.5 10.666C10.71 10.666 12.5 8.87602 12.5 6.66602C12.5 4.45602 10.71 2.66602 8.5 2.66602C6.29 2.66602 4.5 4.45602 4.5 6.66602C4.5 8.87602 6.29 10.666 8.5 10.666Z" fill="#64748B"/>
</svg>
