<svg width="21" height="21" viewBox="0 0 21 21" fill="none" xmlns="http://www.w3.org/2000/svg">
<path d="M10.9287 20.667C5.40571 20.667 0.928711 16.19 0.928711 10.667C0.928711 5.14399 5.40571 0.666992 10.9287 0.666992C16.4517 0.666992 20.9287 5.14399 20.9287 10.667C20.9287 16.19 16.4517 20.667 10.9287 20.667ZM10.9287 18.667C13.0504 18.667 15.0853 17.8241 16.5856 16.3238C18.0859 14.8236 18.9287 12.7887 18.9287 10.667C18.9287 8.54526 18.0859 6.51043 16.5856 5.01014C15.0853 3.50985 13.0504 2.66699 10.9287 2.66699C8.80698 2.66699 6.77215 3.50985 5.27186 5.01014C3.77157 6.51043 2.92871 8.54526 2.92871 10.667C2.92871 12.7887 3.77157 14.8236 5.27186 16.3238C6.77215 17.8241 8.80698 18.667 10.9287 18.667ZM11.9287 10.667H15.9287V12.667H9.92871V5.66699H11.9287V10.667Z" fill="#1E293B"/>
</svg>
