<svg width="21" height="21" viewBox="0 0 21 21" fill="none" xmlns="http://www.w3.org/2000/svg">
<path d="M10.4287 20.667C4.90571 20.667 0.428711 16.19 0.428711 10.667C0.428711 5.14399 4.90571 0.666992 10.4287 0.666992C15.9517 0.666992 20.4287 5.14399 20.4287 10.667C20.4287 16.19 15.9517 20.667 10.4287 20.667ZM10.4287 18.667C12.5504 18.667 14.5853 17.8241 16.0856 16.3238C17.5859 14.8236 18.4287 12.7887 18.4287 10.667C18.4287 8.54526 17.5859 6.51043 16.0856 5.01014C14.5853 3.50985 12.5504 2.66699 10.4287 2.66699C8.30698 2.66699 6.27215 3.50985 4.77186 5.01014C3.27157 6.51043 2.42871 8.54526 2.42871 10.667C2.42871 12.7887 3.27157 14.8236 4.77186 16.3238C6.27215 17.8241 8.30698 18.667 10.4287 18.667ZM11.4287 10.667H15.4287V12.667H9.42871V5.66699H11.4287V10.667Z" fill="#0C4A6E"/>
</svg>
