<svg width="22" height="19" viewBox="0 0 22 19" fill="none" xmlns="http://www.w3.org/2000/svg">
<path d="M15.9999 19.0005H5.99987C4.5831 19.0013 3.21172 18.5009 2.12856 17.5876C1.0454 16.6744 0.320345 15.4073 0.0817801 14.0108C-0.156785 12.6142 0.106532 11.1783 0.825107 9.9573C1.54368 8.73628 2.67115 7.80893 4.00787 7.33945C3.96259 6.39311 4.10989 5.44743 4.44083 4.55969C4.77178 3.67194 5.2795 2.86062 5.93322 2.17487C6.58694 1.48912 7.37307 0.943208 8.24398 0.570208C9.11489 0.197208 10.0525 0.00488281 10.9999 0.00488281C11.9473 0.00488281 12.8849 0.197208 13.7558 0.570208C14.6267 0.943208 15.4128 1.48912 16.0665 2.17487C16.7203 2.86062 17.228 3.67194 17.5589 4.55969C17.8899 5.44743 18.0372 6.39311 17.9919 7.33945C19.3286 7.80893 20.4561 8.73628 21.1746 9.9573C21.8932 11.1783 22.1565 12.6142 21.918 14.0108C21.6794 15.4073 20.9543 16.6744 19.8712 17.5876C18.788 18.5009 17.4166 19.0013 15.9999 19.0005ZM5.99987 17.0005H15.9999C16.5425 16.9995 17.0793 16.8881 17.5775 16.6731C18.0758 16.4581 18.5251 16.144 18.8981 15.7499C19.2711 15.3557 19.5599 14.8898 19.7472 14.3805C19.9344 13.8712 20.016 13.3291 19.9871 12.7872C19.9581 12.2453 19.8192 11.715 19.5789 11.2285C19.3385 10.742 19.0016 10.3095 18.5888 9.9573C18.1759 9.60512 17.6957 9.34063 17.1774 9.17991C16.6591 9.0192 16.1135 8.96562 15.5739 9.02245C15.9099 8.26132 16.0507 7.42835 15.9835 6.59905C15.9163 5.76975 15.6432 4.97032 15.189 4.27323C14.7348 3.57614 14.1138 3.00343 13.3823 2.60699C12.6508 2.21054 11.8319 2.00292 10.9999 2.00292C10.1679 2.00292 9.34898 2.21054 8.61748 2.60699C7.88598 3.00343 7.26497 3.57614 6.81074 4.27323C6.35651 4.97032 6.08342 5.76975 6.01621 6.59905C5.94901 7.42835 6.08982 8.26132 6.42587 9.02245C5.88621 8.96562 5.34062 9.0192 4.82232 9.17991C4.30402 9.34063 3.82383 9.60512 3.41099 9.9573C2.99815 10.3095 2.66128 10.742 2.42089 11.2285C2.1805 11.715 2.04161 12.2453 2.01268 12.7872C1.98374 13.3291 2.06537 13.8712 2.25259 14.3805C2.4398 14.8898 2.7287 15.3557 3.10169 15.7499C3.47468 16.144 3.92396 16.4581 4.42221 16.6731C4.92045 16.8881 5.45723 16.9995 5.99987 17.0005Z" fill="#353E5F"/>
</svg>
