<svg width="24" height="24" viewBox="0 0 24 24" fill="none" xmlns="http://www.w3.org/2000/svg">
<path fill-rule="evenodd" clip-rule="evenodd" d="M12 22C6.477 22 2 17.523 2 12C2 6.477 6.477 2 12 2C17.523 2 22 6.477 22 12C22 17.523 17.523 22 12 22ZM16.8909 15.477L13.414 12.0001L16.8911 8.52301C16.5019 7.97646 16.0234 7.49859 15.4771 7.10901L12 10.5861L8.52289 7.10901C7.97634 7.4982 7.49847 7.97674 7.10889 8.52301L10.586 12.0001L7.10911 15.477C7.49861 16.0236 7.97649 16.5015 8.52311 16.891L12 13.4141L15.4769 16.891C16.0235 16.5015 16.5014 16.0236 16.8909 15.477Z" fill="#16857b"/>
</svg>
