<svg width="18" height="20" viewBox="0 0 18 20" fill="none" xmlns="http://www.w3.org/2000/svg">
<path d="M10 10H13L9 14L5 10H8V6H10V10ZM12 2H2V18H16V6H12V2ZM0 0.992C0 0.444 0.447 0 0.998 0H13L18 5V18.992C18.0011 19.1234 17.9762 19.2537 17.9269 19.3755C17.8775 19.4973 17.8046 19.6082 17.7124 19.7018C17.6202 19.7954 17.5104 19.8699 17.3894 19.9211C17.2683 19.9723 17.1384 19.9991 17.007 20H0.993C0.730378 19.9982 0.479017 19.8931 0.293218 19.7075C0.107418 19.5219 0.00209465 19.2706 0 19.008V0.992Z" fill="#F1F5F9"/>
</svg>
