<svg width="24" height="24" viewBox="0 0 24 24" fill="none" xmlns="http://www.w3.org/2000/svg">
<path d="M2.213 14.06C1.92574 12.7017 1.92608 11.2982 2.214 9.94001C3.324 10.071 4.293 9.70401 4.61 8.93901C4.926 8.17401 4.501 7.22901 3.624 6.53701C4.38093 5.37297 5.37323 4.38034 6.537 3.62301C7.229 4.50101 8.174 4.92601 8.939 4.60901C9.704 4.29201 10.072 3.32301 9.941 2.21301C11.2993 1.92542 12.7027 1.92542 14.061 2.21301C13.93 3.32301 14.297 4.29301 15.062 4.60901C15.827 4.92601 16.772 4.50101 17.464 3.62401C18.6279 4.38065 19.6206 5.37259 20.378 6.53601C19.5 7.22801 19.075 8.17401 19.392 8.93901C19.709 9.70401 20.678 10.071 21.788 9.94001C22.0756 11.2983 22.0756 12.7017 21.788 14.06C20.678 13.93 19.708 14.297 19.392 15.062C19.075 15.826 19.5 16.772 20.377 17.464C19.6203 18.6279 18.6284 19.6205 17.465 20.378C16.772 19.5 15.827 19.074 15.062 19.391C14.297 19.708 13.93 20.677 14.061 21.788C12.7027 22.0753 11.2992 22.075 9.941 21.787C10.071 20.677 9.704 19.708 8.939 19.391C8.174 19.074 7.229 19.5 6.537 20.377C5.37295 19.6201 4.38031 18.6278 3.623 17.464C4.501 16.772 4.926 15.827 4.61 15.062C4.293 14.297 3.324 13.929 2.213 14.06ZM4.001 12.21C5.101 12.515 6.008 13.212 6.457 14.296C6.907 15.381 6.757 16.516 6.195 17.508C6.292 17.61 6.391 17.709 6.493 17.806C7.486 17.243 8.62 17.094 9.705 17.544C10.789 17.993 11.485 18.9 11.79 20C11.93 20.004 12.07 20.004 12.21 20C12.515 18.9 13.212 17.993 14.297 17.544C15.381 17.094 16.516 17.244 17.509 17.806C17.61 17.709 17.709 17.61 17.806 17.508C17.244 16.515 17.095 15.381 17.544 14.296C17.994 13.212 18.901 12.515 20 12.211C20.004 12.071 20.004 11.931 20 11.79C18.9 11.486 17.993 10.789 17.544 9.70401C17.094 8.62001 17.244 7.48401 17.806 6.49201C17.7097 6.39038 17.6106 6.29134 17.509 6.19501C16.516 6.75701 15.381 6.90601 14.297 6.45701C13.212 6.00701 12.515 5.10001 12.21 4.00001C12.07 3.9963 11.93 3.9963 11.79 4.00001C11.485 5.10001 10.788 6.00801 9.704 6.45701C8.619 6.90701 7.484 6.75701 6.492 6.19501C6.38994 6.29123 6.29057 6.39027 6.194 6.49201C6.757 7.48501 6.906 8.62001 6.456 9.70401C6.007 10.789 5.1 11.485 4 11.79C3.996 11.93 3.997 12.07 4.001 12.21ZM12 15C11.2044 15 10.4413 14.6839 9.87868 14.1213C9.31607 13.5587 9 12.7957 9 12C9 11.2044 9.31607 10.4413 9.87868 9.87869C10.4413 9.31608 11.2044 9.00001 12 9.00001C12.7957 9.00001 13.5587 9.31608 14.1213 9.87869C14.6839 10.4413 15 11.2044 15 12C15 12.7957 14.6839 13.5587 14.1213 14.1213C13.5587 14.6839 12.7957 15 12 15ZM12 13C12.2652 13 12.5196 12.8946 12.7071 12.7071C12.8946 12.5196 13 12.2652 13 12C13 11.7348 12.8946 11.4804 12.7071 11.2929C12.5196 11.1054 12.2652 11 12 11C11.7348 11 11.4804 11.1054 11.2929 11.2929C11.1054 11.4804 11 11.7348 11 12C11 12.2652 11.1054 12.5196 11.2929 12.7071C11.4804 12.8946 11.7348 13 12 13Z" fill="#F1F5F9"/>
</svg>
