<svg width="21" height="21" viewBox="0 0 26 26" fill="none" xmlns="http://www.w3.org/2000/svg">
<path d="M10.333 20.0879C4.81001 20.0879 0.333008 15.6109 0.333008 10.0879C0.333008 4.56489 4.81001 0.0878906 10.333 0.0878906C15.856 0.0878906 20.333 4.56489 20.333 10.0879C20.333 15.6109 15.856 20.0879 10.333 20.0879ZM10.333 18.0879C12.4547 18.0879 14.4896 17.245 15.9899 15.7447C17.4902 14.2445 18.333 12.2096 18.333 10.0879C18.333 7.96616 17.4902 5.93133 15.9899 4.43104C14.4896 2.93075 12.4547 2.08789 10.333 2.08789C8.21128 2.08789 6.17644 2.93075 4.67615 4.43104C3.17586 5.93133 2.33301 7.96616 2.33301 10.0879C2.33301 12.2096 3.17586 14.2445 4.67615 15.7447C6.17644 17.245 8.21128 18.0879 10.333 18.0879ZM11.333 10.0879H15.333V12.0879H9.33301V5.08789H11.333V10.0879Z" fill="#64748B"/>
</svg>
